<svg xmlns="http://www.w3.org/2000/svg" xmlns:svg="http://www.w3.org/2000/svg" id="svg8" width="16" height="16" version="1.1" viewBox="0 0 4.233 4.233"><defs id="defs2"><filter style="color-interpolation-filters:sRGB" id="filter1135" width="1.195" height="1.198" x="-.097" y="-.07"><feFlood id="feFlood1125" flood-color="#000" flood-opacity=".498" result="flood"/><feComposite id="feComposite1127" in="flood" in2="SourceGraphic" operator="in" result="composite1"/><feGaussianBlur id="feGaussianBlur1129" in="composite1" result="blur" stdDeviation=".1"/><feOffset id="feOffset1131" dx="0" dy=".2" result="offset"/><feComposite id="feComposite1133" in="SourceGraphic" in2="offset" operator="over" result="composite2"/></filter></defs><metadata id="metadata5"/><g id="layer1"><rect style="fill:#24bc83;fill-opacity:1;fill-rule:evenodd;stroke-width:.264583;stroke-miterlimit:4;stroke-dasharray:none" id="rect18" width="4.233" height="4.233" x="0" y="0" ry="1.058"/><rect style="fill:#3ede9c;fill-opacity:1;stroke:none;stroke-width:.30868;stroke-miterlimit:4;stroke-dasharray:none;stroke-opacity:1" id="rect847" width="3.704" height="3.704" x=".265" y=".265" ry="1.058"/><g id="text948" aria-label="R" transform="scale(1.1079108,0.90259972)" style="font-style:normal;font-variant:normal;font-weight:400;font-stretch:normal;font-size:16.0747px;line-height:1.25;font-family:'Roboto Mono';-inkscape-font-specification:'Roboto Mono';fill:#fff;fill-opacity:1;stroke:none;stroke-width:.401866;filter:url(#filter1135)"><path d="M 1.9516004,2.7546099 2.6014941,4.0591068 H 3.258452 V 4.0284959 L 2.5237895,2.6039099 q 0.1412812,-0.063576 0.2543062,-0.1507 0.1153797,-0.087123 0.2001485,-0.2048578 0.080059,-0.113025 0.1247984,-0.2590156 0.044739,-0.1459907 0.044739,-0.3249469 0,-0.2566609 -0.089478,-0.4497453 Q 2.9711801,1.0215599 2.8087067,0.89440677 2.6438785,0.76489895 2.4178285,0.6989677 2.1917785,0.63068176 1.9162801,0.63068176 H 0.7954488 V 4.0591068 H 1.4100222 V 2.7546099 Z M 1.4100222,2.2530615 v -1.123186 h 0.5062579 q 0.1412812,0 0.2519515,0.03532 0.1106704,0.03532 0.1907297,0.1012516 0.084769,0.070641 0.1271532,0.1813109 0.044739,0.1083157 0.044739,0.2495969 0,0.1224438 -0.037675,0.2213406 -0.03532,0.096542 -0.1036062,0.1648282 -0.080059,0.082414 -0.2001485,0.1271531 -0.1177344,0.042384 -0.2684344,0.042384 z" style="font-style:normal;font-variant:normal;font-weight:600;font-stretch:normal;font-size:4.8224px;font-family:'Roboto Mono';-inkscape-font-specification:'Roboto Mono Semi-Bold';fill:#fff;fill-opacity:1;stroke-width:.401866" id="path841"/></g></g></svg>